Patient4_TMGait_0pt7_02_right_25_EMG.mot
version=1
nRows=13
nColumns=33
inDegrees=no
endheader
time	1LAddLong	2LGlutMax	3LGlutMed	4LIliopsoas	5LSemiMemb	6LBicFemLong	7LRecFem	8LVastMed	9LVastLat	10LGasMed	11LTibAnt	12lTibPost	13LPeroneusLong	14LSol	15LExtDigLong	16LFlexDigLong	17RAddLong	18RGlutMax	19RGlutMed	20RIliopsoas	21RSemiMemb	22RBicFemLong	23RRecFem	24RVastMed	25RVastLat	26RGasMed	27RTibAnt	28RTibPost	29RPeroneusLong	30RSol	31RExtDigLong	32RFlexDigLong
28.282	0.016022	-0.18234	-0.17319	-0.009003	-0.020905	-0.050049	0.11612	0.008698	0.006104	-0.077057	-0.16739	-0.001526	0.0177	-0.092163	-0.58502	-0.011292	0.043335	-0.099792	-0.075073	-0.007935	-0.48828	0.75958	0.076141	-0.14358	-0.1738	0.084686	-0.076447	-0.040436	-1.291	0.22888	0.001373	-0.012817
28.283	0.013733	-0.18829	-0.17227	0.005646	0.003662	-0.13718	0.092621	0.006409	0.027466	-0.062408	-0.26642	0.011597	-0.046692	-0.10834	-0.46463	0.001373	-0.16541	-0.27161	-0.37918	0.009308	-0.10757	0.94009	-0.023346	0.040283	-0.082855	0.031281	-0.049438	-0.08255	-1.4067	0.30548	-0.001831	-0.014496
28.284	0.003204	-0.23682	-0.16174	0.041351	0.030975	-0.15137	0.095825	-0.001221	0.050964	-0.11948	-0.18051	0.003357	-0.05661	-0.089722	-0.16754	0.000763	-0.17578	-0.41977	-0.27542	0.087128	0.10315	0.78445	-0.16235	0.21866	0.01297	0.041656	0.038757	-0.17685	-0.30243	0.32196	0.001526	-0.02243
28.285	0.001984	-0.26199	-0.15442	0.018768	0.039825	-0.1001	0.084991	-0.000916	0.058441	-0.027161	-0.031738	0.007935	-0.028687	-0.085754	0.032654	0.00412	-0.093689	-0.39352	0.53833	0.099945	-0.007019	0.52277	-0.31296	0.36636	0.091248	0.029297	0.10635	-0.10239	-0.075836	0.11398	0.005188	-0.023804
28.286	0.001678	-0.28	-0.1828	-0.033112	0.039368	-0.069885	0.093079	0.006256	0.051422	0.073395	0.022888	0.004425	-0.040436	-0.080719	0.1622	0.017242	-0.023651	-0.32303	0.80307	0.1062	-0.30685	0.54504	-0.20416	0.36087	0.1091	-0.041046	0.016174	0.10651	0.72311	0.14542	0.00351	-0.021362
28.287	-0.005798	-0.37552	-0.19134	-0.034637	0.032196	-0.08316	0.078278	-0.002594	0.070801	0.08194	0.077362	0.002594	-0.103	-0.038452	0.27725	0.015564	-0.024414	-0.32852	0.21408	0.14648	-0.056915	0.38467	-0.055389	0.40329	0.11108	-0.031738	0.036469	-0.010223	1.5567	0.20783	0.006561	-0.018311
28.288	-0.015411	-0.39566	-0.1767	-0.020447	0.057373	-0.097809	0.11368	-0.001678	0.081177	0.11353	0.06897	0.008392	-0.13428	-0.011749	0.55374	0.014954	0.004272	-0.24719	1.8205	0.023956	0.19684	0.060272	-0.040131	0.29785	0.034485	-0.010071	0.026398	-0.12497	1.3623	0.068817	0.002594	-0.00412
28.289	-0.016022	-0.41992	-0.16968	-0.016479	0.069733	-0.027161	0.16251	-0.004425	0.089569	0.11002	0.11749	0.007172	-0.16357	-0.001678	-0.038605	0.015259	-0.001984	-0.30228	1.8111	0.005035	-0.014343	-0.094604	-0.043182	0.25543	0.039368	-0.02243	-0.019684	-0.089874	-0.72678	-0.03006	0.002594	0.00061
28.29	-0.009918	-0.43869	-0.19302	-0.002289	0.074463	0.016022	0.2121	-0.007629	0.094147	0.13779	0.24811	0.003815	-0.13123	-0.035858	-0.088654	0.001831	-0.018616	-0.23972	0.39764	-0.011444	-0.24231	-0.26794	-0.062714	0.28305	-0.089569	-0.055695	-0.002899	-0.23315	-0.090332	0.32837	0.003357	0.000916
28.291	-0.005035	-0.50842	-0.20386	0.033875	0.046692	-0.052643	0.21805	-0.009003	0.10559	0.28473	0.23025	0.004425	-0.075073	-0.049896	-0.25559	0.008392	-0.032654	-0.21561	0.17792	-0.10788	-0.16846	-0.39414	-0.12024	0.30609	-0.48004	-0.14618	-0.11307	0.079956	0.39154	0.4892	0.010376	-0.004425
28.292	-0.009918	-0.49774	-0.21637	0.069885	0.039825	-0.052795	0.23422	-0.009613	0.112	0.49515	0.078125	0.007019	-0.032806	0.012207	-0.24246	0.006561	0.009613	-0.37766	-0.65765	0.001068	-0.1059	-0.20874	-0.094604	0.099945	-0.49454	-0.052948	-0.18463	0.023804	0.40253	-0.024414	0.005341	-0.009003
28.293	-0.011292	-0.52536	-0.21942	0.058899	0.039825	-0.086212	0.22781	-0.005341	0.13733	0.45914	-0.01297	0.004883	-0.028839	0.085907	0.059204	0.018921	0.006866	-0.53467	-1.1693	0.082855	0.08606	-0.053253	-0.037689	-0.12131	-0.29282	-0.061493	-0.16693	-0.014801	3.1953	-0.5629	0.003357	-0.013123
28.294	-0.002136	-0.55435	-0.21576	0.065155	0.043488	-0.094452	0.20584	-0.00473	0.15274	0.22705	-0.34378	0.001984	-0.023041	0.12604	1.1688	0.031281	0.000763	-0.70358	-0.95581	0.059509	0.098877	0.042725	-0.03067	-0.16525	-0.09201	-0.067902	-0.035706	-0.033112	-0.26428	-0.513	0.005188	-0.015106
